<svg width="15" height="15" viewBox="0 0 15 15" fill="none" xmlns="http://www.w3.org/2000/svg">
<path fill-rule="evenodd" clip-rule="evenodd" d="M7.5 15C11.6421 15 15 11.6421 15 7.5C15 3.35786 11.6421 0 7.5 0C3.35786 0 0 3.35786 0 7.5C0 11.6421 3.35786 15 7.5 15ZM7.5 6.75C8.74264 6.75 9.75 5.74264 9.75 4.5C9.75 3.25736 8.74264 2.25 7.5 2.25C6.25736 2.25 5.25 3.25736 5.25 4.5C5.25 5.74264 6.25736 6.75 7.5 6.75ZM3 10.5C3.5625 8.8125 6.375 8.25 7.5 8.25C8.625 8.25 11.4375 8.8125 12 10.5C11.4375 12.1875 9.1875 12.75 7.5 12.75C5.8125 12.75 3.5625 12.1875 3 10.5Z" fill="#6D55FE"/>
</svg>
